<svg width="32" height="32" viewBox="0 0 32 32" fill="none" xmlns="http://www.w3.org/2000/svg">
  <!-- Background circle -->
  <circle cx="16" cy="16" r="15" fill="#4CAF50" stroke="#2E7D32" stroke-width="2"/>
  
  <!-- Brain outline -->
  <path d="M16 6 C 10 8, 8 16, 12 20 C 8 22, 10 26, 16 26 C 22 26, 24 22, 20 20 C 24 16, 22 8, 16 6 Z" 
        fill="#81C784" stroke="#2E7D32" stroke-width="1.5"/>
  
  <!-- Central dividing line -->
  <line x1="16" y1="8" x2="16" y2="24" stroke="#2E7D32" stroke-width="1.5"/>
  
  <!-- Brain texture lines -->
  <path d="M12 12 C 14 10, 18 10, 20 12" stroke="#2E7D32" stroke-width="1" fill="none"/>
  <path d="M12 16 C 14 14, 18 14, 20 16" stroke="#2E7D32" stroke-width="1" fill="none"/>
  <path d="M12 20 C 14 18, 18 18, 20 20" stroke="#2E7D32" stroke-width="1" fill="none"/>
  
  <!-- Neuron dots -->
  <circle cx="14" cy="14" r="1.5" fill="#2E7D32"/>
  <circle cx="18" cy="14" r="1.5" fill="#2E7D32"/>
  <circle cx="14" cy="18" r="1.5" fill="#2E7D32"/>
  <circle cx="18" cy="18" r="1.5" fill="#2E7D32"/>
  
  <!-- AI sparkle -->
  <path d="M24 8 L26 6 L28 8 L26 10 Z" fill="#FFD700" stroke="#FF8F00" stroke-width="0.5"/>
  <path d="M6 8 L8 6 L10 8 L8 10 Z" fill="#FFD700" stroke="#FF8F00" stroke-width="0.5"/>
</svg>