<svg width="64" height="64" viewBox="0 0 64 64" fill="none" xmlns="http://www.w3.org/2000/svg">
  <!-- Background circle -->
  <circle cx="32" cy="32" r="30" fill="#4CAF50" stroke="#2E7D32" stroke-width="4"/>
  
  <!-- Brain outline -->
  <path d="M32 12 C 20 16, 16 32, 24 40 C 16 44, 20 52, 32 52 C 44 52, 48 44, 40 40 C 48 32, 44 16, 32 12 Z" 
        fill="#81C784" stroke="#2E7D32" stroke-width="3"/>
  
  <!-- Central dividing line -->
  <line x1="32" y1="16" x2="32" y2="48" stroke="#2E7D32" stroke-width="3"/>
  
  <!-- Brain texture lines -->
  <path d="M24 24 C 28 20, 36 20, 40 24" stroke="#2E7D32" stroke-width="2" fill="none"/>
  <path d="M24 32 C 28 28, 36 28, 40 32" stroke="#2E7D32" stroke-width="2" fill="none"/>
  <path d="M24 40 C 28 36, 36 36, 40 40" stroke="#2E7D32" stroke-width="2" fill="none"/>
  
  <!-- Neuron dots -->
  <circle cx="28" cy="28" r="3" fill="#2E7D32"/>
  <circle cx="36" cy="28" r="3" fill="#2E7D32"/>
  <circle cx="28" cy="36" r="3" fill="#2E7D32"/>
  <circle cx="36" cy="36" r="3" fill="#2E7D32"/>
  
  <!-- AI sparkle -->
  <path d="M48 16 L52 12 L56 16 L52 20 Z" fill="#FFD700" stroke="#FF8F00" stroke-width="1"/>
  <path d="M12 16 L16 12 L20 16 L16 20 Z" fill="#FFD700" stroke="#FF8F00" stroke-width="1"/>
  <path d="M48 48 L50 46 L52 48 L50 50 Z" fill="#FFD700" stroke="#FF8F00" stroke-width="1"/>
  <path d="M12 48 L14 46 L16 48 L14 50 Z" fill="#FFD700" stroke="#FF8F00" stroke-width="1"/>
</svg>